#!OML:ASF F:\VICON\USERDATA\INSTALL\rory3\rory3.ASF
:FULLY-SPECIFIED
:DEGREES
913
root -0.228353 21.2687 6.20475 3.03893 -1.78647 -356.608
lowerback 5.00941 0.408857 -1.42014
upperback 0.814965 0.53558 3.08818
thorax -2.0132 0.285672 3.94995
lowerneck -13.4981 1.15328 -9.16744
upperneck 42.2197 4.72021 0.552775
head 17.756 0.546235 2.77225
rclavicle 6.16232e-015 6.36111e-015
rhumerus -31.7402 -13.8766 -72.8898
rradius 33.3874
rwrist 20.9789
rhand -21.4176 3.98293
rfingers 7.12502
rthumb 4.97112 -25.9388
lclavicle 6.16232e-015 6.36111e-015
lhumerus -41.4171 18.5394 76.3323
lradius 29.76
lwrist -4.62229
lhand -15.2787 25.7993
lfingers 7.12502
lthumb 10.8959 55.4966
rfemur -31.9694 -15.1021 13.4861
rtibia 106.726
rfoot -9.8624 20.4281
rtoes 0.15779
lfemur -11.0124 0.875157 -31.5052
ltibia 21.5322
lfoot -1.18538 -2.386
ltoes 14.8084
914
root -0.216289 21.2755 6.2992 2.95241 -1.92028 -356.769
lowerback 5.01495 0.383969 -1.19427
upperback 0.83746 0.51363 3.07411
thorax -1.9893 0.272445 3.80863
lowerneck -13.6034 1.21011 -9.07925
upperneck 42.0886 4.84479 0.407944
head 17.7082 0.594479 2.70961
rclavicle 1.98785e-016 -6.36111e-015
rhumerus -31.9826 -14.216 -72.8237
rradius 33.5461
rwrist 21.1758
rhand -21.5447 4.08796
rfingers 7.12502
rthumb 4.84845 -25.8366
lclavicle 1.98785e-016 -6.36111e-015
lhumerus -41.3684 18.6353 76.4021
lradius 29.7036
lwrist -4.85783
lhand -15.2018 25.983
lfingers 7.12502
lthumb 10.9702 55.6764
rfemur -32.6871 -14.917 13.5846
rtibia 107.596
rfoot -11.1115 19.8295
rtoes -4.17537
lfemur -10.5192 0.846607 -31.377
ltibia 21.3541
lfoot -0.97795 -2.53541
ltoes 14.7728
915
root -0.205567 21.2771 6.39113 2.83045 -2.15487 -356.868
lowerback 4.98434 0.421919 -1.0239
upperback 0.929059 0.569818 3.01421
thorax -1.87983 0.296799 3.64604
lowerneck -13.6571 1.21915 -8.96108
upperneck 41.87 4.86731 0.272573
head 17.6027 0.613262 2.62488
rclavicle -5.96354e-015 3.18055e-015
rhumerus -32.1769 -14.5565 -72.8032
rradius 33.796
rwrist 21.3133
rhand -21.3868 3.77889
rfingers 7.12502
rthumb 5.00088 -26.1421
lclavicle -5.96354e-015 3.18055e-015
lhumerus -41.1166 18.7274 76.4598
lradius 29.4237
lwrist -5.19945
lhand -15.2287 25.8398
lfingers 7.12502
lthumb 10.9442 55.5345
rfemur -33.2818 -14.5874 13.6918
rtibia 108.262
rfoot -11.8261 19.5994
rtoes -4.75281
lfemur -9.97224 0.880583 -31.3172
ltibia 21.1431
lfoot -0.781521 -2.46948
ltoes 14.3441
916
root -0.19653 21.2758 6.47913 2.71593 -2.43701 -356.936
lowerback 5.07843 0.456456 -0.929667
upperback 0.930468 0.620119 2.96161
thorax -1.93303 0.321756 3.53434
lowerneck -13.7534 1.20466 -8.95706
upperneck 41.7863 4.87067 0.219046
head 17.5827 0.608615 2.59962
rclavicle 7.55382e-015 0
rhumerus -32.4445 -14.5709 -72.8549
rradius 34.1294
rwrist 21.2418
rhand -21.0262 2.56523
rfingers 7.12502
rthumb 5.34906 -27.3473
lclavicle 7.55382e-015 0
lhumerus -41.0105 18.7736 76.5081
lradius 29.1469
lwrist -5.38431
lhand -15.2399 25.6152
lfingers 7.12502
lthumb 10.9334 55.3105
rfemur -33.9051 -14.1809 13.8165
rtibia 108.811
rfoot -12.0096 19.4477
rtoes -3.40742
lfemur -9.43953 0.944949 -31.2974
ltibia 20.9076
lfoot -0.709579 -2.28284
ltoes 13.7707
917
root -0.186655 21.2736 6.56887 2.61538 -2.71077 -356.833
lowerback 5.17609 0.484524 -1.04844
upperback 0.891566 0.65118 2.90968
thorax -2.03053 0.339399 3.54512
lowerneck -13.8076 1.22008 -8.94604
upperneck 41.6989 4.92758 0.128615
head 17.5485 0.622946 2.56446
rclavicle 1.31198e-014 -2.22639e-014
rhumerus -32.78 -14.4654 -72.8377
rradius 34.432
rwrist 20.8994
rhand -20.8099 1.90447
rfingers 7.12502
rthumb 5.55792 -28.0026
lclavicle 1.31198e-014 -2.22639e-014
lhumerus -40.92 18.9685 76.5468
lradius 28.7979
lwrist -5.61313
lhand -15.2168 25.7115
lfingers 7.12502
lthumb 10.9557 55.4056
rfemur -34.5919 -13.8118 13.7061
rtibia 109.326
rfoot -12.4464 19.2603
rtoes -3.87173
lfemur -8.91826 1.04853 -31.463
ltibia 20.6832
lfoot -0.72361 -2.25957
ltoes 13.245
918
root -0.177738 21.2678 6.65669 2.55679 -2.96326 -356.662
lowerback 5.21872 0.483129 -1.27766
upperback 0.833201 0.63709 2.87696
thorax -2.1156 0.335585 3.64176
lowerneck -13.6635 1.31746 -8.80799
upperneck 41.49 5.07656 -0.0682338
head 17.395 0.690462 2.46624
rclavicle 6.55989e-015 7.95139e-015
rhumerus -33.0764 -14.2383 -72.7928
rradius 34.6126
rwrist 20.403
rhand -20.8282 2.00991
rfingers 7.12502
rthumb 5.54022 -27.8977
lclavicle 6.55989e-015 7.95139e-015
lhumerus -40.8545 19.1542 76.6201
lradius 28.4784
lwrist -5.67251
lhand -15.195 25.6859
lfingers 7.12502
lthumb 10.9767 55.379
rfemur -35.3744 -13.4082 13.5461
rtibia 109.759
rfoot -13.1611 18.8022
rtoes -5.71053
lfemur -8.45158 1.16183 -31.6968
ltibia 20.4803
lfoot -0.78959 -2.2557
ltoes 12.8072
919
root -0.169401 21.2618 6.74554 2.48056 -3.17515 -356.52
lowerback 5.23968 0.481072 -1.39975
upperback 0.823459 0.625814 2.79727
thorax -2.1369 0.330978 3.62881
lowerneck -13.8797 1.31242 -9.12519
upperneck 41.5962 5.06407 0.273498
head 17.4854 0.672172 2.68357
rclavicle -1.74931e-014 7.95139e-015
rhumerus -33.2285 -13.9511 -72.8929
rradius 34.7599
rwrist 19.7726
rhand -20.9464 1.70613
rfingers 7.12502
rthumb 5.42607 -28.2044
lclavicle -1.74931e-014 7.95139e-015
lhumerus -40.6958 19.2372 76.6867
lradius 28.1929
lwrist -5.68513
lhand -14.9736 25.7642
lfingers 7.12502
lthumb 11.1902 55.4458
rfemur -36.1772 -12.9684 13.4515
rtibia 110.066
rfoot -14.0632 17.958
rtoes -8.08123
lfemur -7.93164 1.17866 -31.8937
ltibia 20.2213
lfoot -0.91146 -2.14
ltoes 12.4955
920
root -0.160965 21.2558 6.8384 2.34252 -3.34289 -356.424
lowerback 5.27947 0.441073 -1.44472
upperback 0.856346 0.567235 2.70671
thorax -2.12043 0.301117 3.56424
lowerneck -14.0093 1.34772 -9.02123
upperneck 41.5014 5.14694 0.140917
head 17.4694 0.704152 2.61908
rclavicle -1.98785e-015 1.74931e-014
rhumerus -33.296 -13.7056 -73.0673
rradius 34.821
rwrist 19.3156
rhand -21.1167 1.54356
rfingers 7.12502
rthumb 5.26165 -28.3711
lclavicle -1.98785e-015 1.74931e-014
lhumerus -40.5491 19.2074 76.7371
lradius 27.9841
lwrist -5.66827
lhand -14.8412 25.9503
lfingers 7.12502
lthumb 11.3179 55.625
rfemur -36.835 -12.5758 13.4299
rtibia 110.173
rfoot -14.9299 16.8741
rtoes -10.0112
lfemur -7.32312 1.21878 -32.0324
ltibia 19.9246
lfoot -0.932404 -2.06585
ltoes 12.6767
921
root -0.15307 21.2487 6.93327 2.18865 -3.44137 -356.156
lowerback 5.31407 0.373856 -1.65378
upperback 0.869553 0.461985 2.55329
thorax -2.11877 0.249422 3.5307
lowerneck -14.0417 1.37525 -8.83342
upperneck 41.4274 5.19009 -0.0250677
head 17.4464 0.728537 2.51592
rclavicle 1.68967e-014 -3.18055e-015
rhumerus -33.4639 -13.5209 -73.2157
rradius 34.9431
rwrist 18.9301
rhand -21.0672 1.67683
rfingers 7.12502
rthumb 5.30951 -28.2367
lclavicle 1.68967e-014 -3.18055e-015
lhumerus -40.4643 19.2359 76.6653
lradius 27.7686
lwrist -5.93324
lhand -14.6908 25.8475
lfingers 7.12502
lthumb 11.463 55.5141
rfemur -37.3987 -12.2634 13.2132
rtibia 110.092
rfoot -15.6163 15.7252
rtoes -11.0233
lfemur -6.67386 1.26646 -32.3547
ltibia 19.6156
lfoot -0.924896 -2.08141
ltoes 13.378
